<svg width="1200" height="700" viewBox="0 0 1200 700" fill="none" xmlns="http://www.w3.org/2000/svg">
  <defs>
    <linearGradient id="bg" x1="0" y1="0" x2="1200" y2="700" gradientUnits="userSpaceOnUse">
      <stop stop-color="#1A2338"/>
      <stop offset="1" stop-color="#121A2D"/>
    </linearGradient>
    <linearGradient id="accent" x1="120" y1="140" x2="920" y2="620" gradientUnits="userSpaceOnUse">
      <stop stop-color="#D3AF59"/>
      <stop offset="1" stop-color="#8AA2D9"/>
    </linearGradient>
  </defs>
  <rect width="1200" height="700" rx="32" fill="url(#bg)"/>

  <rect x="80" y="92" width="1040" height="70" rx="14" fill="#0F1629" stroke="#2A3656"/>
  <circle cx="122" cy="127" r="10" fill="#D3AF59"/>
  <rect x="150" y="114" width="420" height="24" rx="8" fill="#1C2842"/>
  <rect x="950" y="108" width="130" height="36" rx="10" fill="#D3AF59"/>

  <rect x="80" y="190" width="660" height="430" rx="20" fill="#0F172B" stroke="#2A3656"/>
  <rect x="104" y="216" width="612" height="210" rx="14" fill="#15213A"/>
  <rect x="104" y="446" width="288" height="150" rx="14" fill="#131D33"/>
  <rect x="428" y="446" width="288" height="150" rx="14" fill="#131D33"/>

  <rect x="774" y="190" width="346" height="430" rx="20" fill="#0F172B" stroke="#2A3656"/>
  <rect x="798" y="220" width="298" height="56" rx="12" fill="#182542"/>
  <rect x="798" y="292" width="298" height="56" rx="12" fill="#182542"/>
  <rect x="798" y="364" width="298" height="56" rx="12" fill="#182542"/>
  <rect x="798" y="476" width="298" height="108" rx="12" fill="url(#accent)"/>

  <path d="M227 330C227 294.654 255.654 266 291 266H524C559.346 266 588 294.654 588 330V334C588 369.346 559.346 398 524 398H291C255.654 398 227 369.346 227 334V330Z" fill="#D3AF59" fill-opacity="0.14"/>
  <path d="M300 312H514" stroke="#D3AF59" stroke-width="18" stroke-linecap="round"/>
  <path d="M300 350H444" stroke="#8AA2D9" stroke-width="14" stroke-linecap="round"/>
</svg>
